<svg width="32" height="32" viewBox="0 0 32 32" fill="none" xmlns="http://www.w3.org/2000/svg">
<path d="M12 7V25" stroke="white" stroke-width="2" stroke-linecap="round" stroke-linejoin="round"/>
<path d="M3 20.9C2.99873 20.6697 3.07799 20.4462 3.22407 20.2682C3.37016 20.0901 3.57388 19.9687 3.8 19.925C4.6994 19.734 5.50593 19.24 6.08464 18.5255C6.66334 17.811 6.97911 16.9194 6.97911 16C6.97911 15.0806 6.66334 14.189 6.08464 13.4745C5.50593 12.76 4.6994 12.266 3.8 12.075C3.57388 12.0313 3.37016 11.9099 3.22407 11.7318C3.07799 11.5538 2.99873 11.3303 3 11.1V8C3 7.73478 3.10536 7.48043 3.29289 7.29289C3.48043 7.10536 3.73478 7 4 7H28C28.2652 7 28.5196 7.10536 28.7071 7.29289C28.8946 7.48043 29 7.73478 29 8V11.1C29.0013 11.3303 28.922 11.5538 28.7759 11.7318C28.6298 11.9099 28.4261 12.0313 28.2 12.075C27.3006 12.266 26.4941 12.76 25.9154 13.4745C25.3367 14.189 25.0209 15.0806 25.0209 16C25.0209 16.9194 25.3367 17.811 25.9154 18.5255C26.4941 19.24 27.3006 19.734 28.2 19.925C28.4261 19.9687 28.6298 20.0901 28.7759 20.2682C28.922 20.4462 29.0013 20.6697 29 20.9V24C29 24.2652 28.8946 24.5196 28.7071 24.7071C28.5196 24.8946 28.2652 25 28 25H4C3.73478 25 3.48043 24.8946 3.29289 24.7071C3.10536 24.5196 3 24.2652 3 24V20.9Z" stroke="white" stroke-width="2" stroke-linecap="round" stroke-linejoin="round"/>
<path d="M22.4588 15.3281H20.5923C20.5582 15.0866 20.4886 14.8722 20.3835 14.6847C20.2784 14.4943 20.1435 14.3324 19.9787 14.1989C19.8139 14.0653 19.6236 13.9631 19.4077 13.892C19.1946 13.821 18.9631 13.7855 18.7131 13.7855C18.2614 13.7855 17.8679 13.8977 17.5327 14.1222C17.1974 14.3437 16.9375 14.6676 16.7528 15.0938C16.5682 15.517 16.4759 16.0312 16.4759 16.6364C16.4759 17.2585 16.5682 17.7812 16.7528 18.2045C16.9403 18.6278 17.2017 18.9474 17.5369 19.1634C17.8722 19.3793 18.2599 19.4872 18.7003 19.4872C18.9474 19.4872 19.1761 19.4545 19.3864 19.3892C19.5994 19.3239 19.7884 19.2287 19.9531 19.1037C20.1179 18.9759 20.2543 18.821 20.3622 18.6392C20.473 18.4574 20.5497 18.25 20.5923 18.017L22.4588 18.0256C22.4105 18.4261 22.2898 18.8125 22.0966 19.1847C21.9063 19.554 21.6491 19.8849 21.3253 20.1776C21.0043 20.4673 20.6207 20.6974 20.1747 20.8679C19.7315 21.0355 19.2301 21.1193 18.6705 21.1193C17.892 21.1193 17.196 20.9432 16.5824 20.5909C15.9716 20.2386 15.4886 19.7287 15.1335 19.0611C14.7812 18.3935 14.6051 17.5852 14.6051 16.6364C14.6051 15.6847 14.7841 14.875 15.142 14.2074C15.5 13.5398 15.9858 13.0312 16.5994 12.6818C17.2131 12.3295 17.9034 12.1534 18.6705 12.1534C19.1761 12.1534 19.6449 12.2244 20.0767 12.3665C20.5114 12.5085 20.8963 12.7159 21.2315 12.9886C21.5668 13.2585 21.8395 13.5895 22.0497 13.9815C22.2628 14.3736 22.3991 14.8224 22.4588 15.3281Z" fill="white"/>
</svg>
